<svg width="50" height="50" viewBox="0 0 50 50" fill="none" xmlns="http://www.w3.org/2000/svg">
<g clip-path="url(#clip0_94_1190)">
<path d="M25 50C38.8071 50 50 38.8071 50 25C50 11.1929 38.8071 0 25 0C11.1929 0 0 11.1929 0 25C0 38.8071 11.1929 50 25 50Z" fill="url(#paint0_linear_94_1190)"/>
<g filter="url(#filter0_d_94_1190)">
<path d="M17.625 10H11.125C10.8489 10 10.625 10.2239 10.625 10.5V17C10.625 17.2761 10.8489 17.5 11.125 17.5H17.625C17.9011 17.5 18.125 17.2761 18.125 17V10.5C18.125 10.2239 17.9011 10 17.625 10Z" fill="black"/>
</g>
<path d="M17.625 10H11.125C10.8489 10 10.625 10.2239 10.625 10.5V17C10.625 17.2761 10.8489 17.5 11.125 17.5H17.625C17.9011 17.5 18.125 17.2761 18.125 17V10.5C18.125 10.2239 17.9011 10 17.625 10Z" fill="#545E75"/>
<g filter="url(#filter1_d_94_1190)">
<path d="M17.625 21.25H11.125C10.8489 21.25 10.625 21.4739 10.625 21.75V28.25C10.625 28.5261 10.8489 28.75 11.125 28.75H17.625C17.9011 28.75 18.125 28.5261 18.125 28.25V21.75C18.125 21.4739 17.9011 21.25 17.625 21.25Z" fill="black"/>
</g>
<path d="M17.625 21.25H11.125C10.8489 21.25 10.625 21.4739 10.625 21.75V28.25C10.625 28.5261 10.8489 28.75 11.125 28.75H17.625C17.9011 28.75 18.125 28.5261 18.125 28.25V21.75C18.125 21.4739 17.9011 21.25 17.625 21.25Z" fill="#545E75"/>
<g filter="url(#filter2_d_94_1190)">
<path d="M17.625 32.5H11.125C10.8489 32.5 10.625 32.7239 10.625 33V39.5C10.625 39.7761 10.8489 40 11.125 40H17.625C17.9011 40 18.125 39.7761 18.125 39.5V33C18.125 32.7239 17.9011 32.5 17.625 32.5Z" fill="black"/>
</g>
<path d="M17.625 32.5H11.125C10.8489 32.5 10.625 32.7239 10.625 33V39.5C10.625 39.7761 10.8489 40 11.125 40H17.625C17.9011 40 18.125 39.7761 18.125 39.5V33C18.125 32.7239 17.9011 32.5 17.625 32.5Z" fill="#545E75"/>
<g filter="url(#filter3_d_94_1190)">
<path d="M38.375 12.5H22.875C22.3227 12.5 21.875 12.9477 21.875 13.5V14C21.875 14.5523 22.3227 15 22.875 15H38.375C38.9273 15 39.375 14.5523 39.375 14V13.5C39.375 12.9477 38.9273 12.5 38.375 12.5Z" fill="black"/>
</g>
<path d="M38.375 12.5H22.875C22.3227 12.5 21.875 12.9477 21.875 13.5V14C21.875 14.5523 22.3227 15 22.875 15H38.375C38.9273 15 39.375 14.5523 39.375 14V13.5C39.375 12.9477 38.9273 12.5 38.375 12.5Z" fill="white"/>
<g filter="url(#filter4_d_94_1190)">
<path d="M38.375 23.75H22.875C22.3227 23.75 21.875 24.1977 21.875 24.75V25.25C21.875 25.8023 22.3227 26.25 22.875 26.25H38.375C38.9273 26.25 39.375 25.8023 39.375 25.25V24.75C39.375 24.1977 38.9273 23.75 38.375 23.75Z" fill="black"/>
</g>
<path d="M38.375 23.75H22.875C22.3227 23.75 21.875 24.1977 21.875 24.75V25.25C21.875 25.8023 22.3227 26.25 22.875 26.25H38.375C38.9273 26.25 39.375 25.8023 39.375 25.25V24.75C39.375 24.1977 38.9273 23.75 38.375 23.75Z" fill="white"/>
<g filter="url(#filter5_d_94_1190)">
<path d="M38.375 35H22.875C22.3227 35 21.875 35.4477 21.875 36V36.5C21.875 37.0523 22.3227 37.5 22.875 37.5H38.375C38.9273 37.5 39.375 37.0523 39.375 36.5V36C39.375 35.4477 38.9273 35 38.375 35Z" fill="black"/>
</g>
<path d="M38.375 35H22.875C22.3227 35 21.875 35.4477 21.875 36V36.5C21.875 37.0523 22.3227 37.5 22.875 37.5H38.375C38.9273 37.5 39.375 37.0523 39.375 36.5V36C39.375 35.4477 38.9273 35 38.375 35Z" fill="white"/>
</g>
<defs>
<filter id="filter0_d_94_1190" x="6.625" y="8" width="15.5" height="15.5" filterUnits="userSpaceOnUse" color-interpolation-filters="sRGB">
<feFlood flood-opacity="0" result="BackgroundImageFix"/>
<feColorMatrix in="SourceAlpha" type="matrix" values="0 0 0 0 0 0 0 0 0 0 0 0 0 0 0 0 0 0 127 0" result="hardAlpha"/>
<feOffset dy="2"/>
<feGaussianBlur stdDeviation="2"/>
<feColorMatrix type="matrix" values="0 0 0 0 0 0 0 0 0 0 0 0 0 0 0 0 0 0 0.5 0"/>
<feBlend mode="normal" in2="BackgroundImageFix" result="effect1_dropShadow_94_1190"/>
<feBlend mode="normal" in="SourceGraphic" in2="effect1_dropShadow_94_1190" result="shape"/>
</filter>
<filter id="filter1_d_94_1190" x="6.625" y="19.25" width="15.5" height="15.5" filterUnits="userSpaceOnUse" color-interpolation-filters="sRGB">
<feFlood flood-opacity="0" result="BackgroundImageFix"/>
<feColorMatrix in="SourceAlpha" type="matrix" values="0 0 0 0 0 0 0 0 0 0 0 0 0 0 0 0 0 0 127 0" result="hardAlpha"/>
<feOffset dy="2"/>
<feGaussianBlur stdDeviation="2"/>
<feColorMatrix type="matrix" values="0 0 0 0 0 0 0 0 0 0 0 0 0 0 0 0 0 0 0.5 0"/>
<feBlend mode="normal" in2="BackgroundImageFix" result="effect1_dropShadow_94_1190"/>
<feBlend mode="normal" in="SourceGraphic" in2="effect1_dropShadow_94_1190" result="shape"/>
</filter>
<filter id="filter2_d_94_1190" x="6.625" y="30.5" width="15.5" height="15.5" filterUnits="userSpaceOnUse" color-interpolation-filters="sRGB">
<feFlood flood-opacity="0" result="BackgroundImageFix"/>
<feColorMatrix in="SourceAlpha" type="matrix" values="0 0 0 0 0 0 0 0 0 0 0 0 0 0 0 0 0 0 127 0" result="hardAlpha"/>
<feOffset dy="2"/>
<feGaussianBlur stdDeviation="2"/>
<feColorMatrix type="matrix" values="0 0 0 0 0 0 0 0 0 0 0 0 0 0 0 0 0 0 0.5 0"/>
<feBlend mode="normal" in2="BackgroundImageFix" result="effect1_dropShadow_94_1190"/>
<feBlend mode="normal" in="SourceGraphic" in2="effect1_dropShadow_94_1190" result="shape"/>
</filter>
<filter id="filter3_d_94_1190" x="17.875" y="10.5" width="25.5" height="10.5" filterUnits="userSpaceOnUse" color-interpolation-filters="sRGB">
<feFlood flood-opacity="0" result="BackgroundImageFix"/>
<feColorMatrix in="SourceAlpha" type="matrix" values="0 0 0 0 0 0 0 0 0 0 0 0 0 0 0 0 0 0 127 0" result="hardAlpha"/>
<feOffset dy="2"/>
<feGaussianBlur stdDeviation="2"/>
<feColorMatrix type="matrix" values="0 0 0 0 0 0 0 0 0 0 0 0 0 0 0 0 0 0 0.5 0"/>
<feBlend mode="normal" in2="BackgroundImageFix" result="effect1_dropShadow_94_1190"/>
<feBlend mode="normal" in="SourceGraphic" in2="effect1_dropShadow_94_1190" result="shape"/>
</filter>
<filter id="filter4_d_94_1190" x="17.875" y="21.75" width="25.5" height="10.5" filterUnits="userSpaceOnUse" color-interpolation-filters="sRGB">
<feFlood flood-opacity="0" result="BackgroundImageFix"/>
<feColorMatrix in="SourceAlpha" type="matrix" values="0 0 0 0 0 0 0 0 0 0 0 0 0 0 0 0 0 0 127 0" result="hardAlpha"/>
<feOffset dy="2"/>
<feGaussianBlur stdDeviation="2"/>
<feColorMatrix type="matrix" values="0 0 0 0 0 0 0 0 0 0 0 0 0 0 0 0 0 0 0.5 0"/>
<feBlend mode="normal" in2="BackgroundImageFix" result="effect1_dropShadow_94_1190"/>
<feBlend mode="normal" in="SourceGraphic" in2="effect1_dropShadow_94_1190" result="shape"/>
</filter>
<filter id="filter5_d_94_1190" x="17.875" y="33" width="25.5" height="10.5" filterUnits="userSpaceOnUse" color-interpolation-filters="sRGB">
<feFlood flood-opacity="0" result="BackgroundImageFix"/>
<feColorMatrix in="SourceAlpha" type="matrix" values="0 0 0 0 0 0 0 0 0 0 0 0 0 0 0 0 0 0 127 0" result="hardAlpha"/>
<feOffset dy="2"/>
<feGaussianBlur stdDeviation="2"/>
<feColorMatrix type="matrix" values="0 0 0 0 0 0 0 0 0 0 0 0 0 0 0 0 0 0 0.5 0"/>
<feBlend mode="normal" in2="BackgroundImageFix" result="effect1_dropShadow_94_1190"/>
<feBlend mode="normal" in="SourceGraphic" in2="effect1_dropShadow_94_1190" result="shape"/>
</filter>
<linearGradient id="paint0_linear_94_1190" x1="0" y1="0" x2="59.0306" y2="34.5873" gradientUnits="userSpaceOnUse">
<stop stop-color="#DD7A05" stop-opacity="0.8"/>
<stop offset="1" stop-color="#EC19A4" stop-opacity="0.8"/>
</linearGradient>
<clipPath id="clip0_94_1190">
<rect width="50" height="50" fill="white"/>
</clipPath>
</defs>
</svg>
