<svg width="14" height="14" viewBox="0 0 14 14" fill="none" xmlns="http://www.w3.org/2000/svg">
<g clip-path="url(#clip0_70_307)">
<path d="M7.00774 0.252014C3.28095 0.252014 0.259766 3.2732 0.259766 6.99999C0.259766 8.19032 0.579496 9.30233 1.10893 10.2796C1.78552 11.5285 4.39663 6.74298 5.78922 7.78593C7.18181 8.82887 2.48183 12.2248 3.78768 12.9206C4.75161 13.4343 5.83945 13.748 7.00774 13.748C10.7345 13.748 13.7557 10.7268 13.7557 6.99999C13.7557 3.27317 10.7346 0.252014 7.00774 0.252014Z" fill="#E5AA6E"/>
<path d="M7.51487 12.348C6.85405 12.348 6.31836 11.8678 6.31836 11.2753C6.31836 10.6829 6.85405 10.2026 7.51487 10.2026C8.17568 10.2026 8.71138 10.6829 8.71138 11.2753C8.71138 11.8678 8.17568 12.348 7.51487 12.348Z" fill="white"/>
<path d="M11.9206 8.18319C12.2681 8.71697 12.0844 9.45263 11.5104 9.82633C10.9363 10.2 10.1893 10.0703 9.84179 9.53652C9.4943 9.00274 9.67797 8.26708 10.2521 7.89338C10.8261 7.51964 11.5731 7.64942 11.9206 8.18319Z" fill="#FFD469"/>
<path d="M12.1189 4.35048C12.1626 4.98589 11.644 5.53908 10.9606 5.58609C10.2773 5.63309 9.68787 5.15608 9.64417 4.52067C9.60048 3.88525 10.119 3.33206 10.8024 3.28506C11.4858 3.23805 12.0752 3.71506 12.1189 4.35048Z" fill="#0074A8"/>
<path d="M7.87032 2.74388C7.91401 3.3793 7.27917 3.9405 6.45235 3.99735C5.62553 4.0542 4.91985 3.5852 4.87615 2.94978C4.83246 2.31437 5.46729 1.75317 6.29412 1.69632C7.12094 1.63947 7.82662 2.10847 7.87032 2.74388Z" fill="#FF473E"/>
<path d="M4.26047 5.50416C4.30416 6.13958 3.78561 6.69277 3.10224 6.73977C2.41886 6.78678 1.82947 6.30977 1.78577 5.67435C1.74208 5.03894 2.26063 4.48575 2.944 4.43874C3.62738 4.39174 4.21677 4.86875 4.26047 5.50416Z" fill="#009B51"/>
</g>
<defs>
<clipPath id="clip0_70_307">
<rect width="14" height="14" fill="white"/>
</clipPath>
</defs>
</svg>
