<svg width="40" height="40" viewBox="0 0 40 40" fill="none" xmlns="http://www.w3.org/2000/svg">
<path d="M37.2093 20C37.2093 20.6175 37.1768 21.2275 37.1133 21.8282C36.2005 30.4731 28.8868 37.2093 20 37.2093V40C31.0458 40 40 31.0458 40 20H37.2093ZM20 37.2093C10.4956 37.2093 2.7907 29.5044 2.7907 20H0C0 31.0458 8.95431 40 20 40V37.2093ZM2.7907 20C2.7907 11.1131 9.52694 3.79945 18.1719 2.88664C18.7726 2.82322 19.3825 2.7907 20 2.7907V0C8.95431 0 0 8.95431 0 20H2.7907ZM26.5116 24.186C20.6035 24.186 15.814 19.3965 15.814 13.4884H13.0233C13.0233 20.9379 19.0621 26.9767 26.5116 26.9767V24.186ZM35.675 19.0121C33.7994 22.1159 30.3967 24.186 26.5116 24.186V26.9767C30.8141 26.9767 34.6449 24.9616 37.1133 21.8282C37.4574 21.3914 37.7749 20.933 38.0636 20.4553L35.675 19.0121ZM15.814 13.4884C15.814 9.60339 17.8841 6.20056 20.9879 4.32497L19.5447 1.93647C19.067 2.22512 18.6086 2.54265 18.1719 2.88664C15.0384 5.35497 13.0233 9.18583 13.0233 13.4884H15.814ZM20 2.7907C19.8353 2.7907 19.6422 2.71643 19.5021 2.57057C19.3834 2.44701 19.3559 2.33012 19.3494 2.28285C19.3416 2.22487 19.3455 2.05687 19.5447 1.93647L20.9879 4.32497C21.9241 3.75935 22.2251 2.72368 22.115 1.90934C22.0007 1.06281 21.3332 0 20 0V2.7907ZM38.0636 20.4553C37.9431 20.6545 37.7751 20.6584 37.7172 20.6506C37.67 20.6441 37.5529 20.6166 37.4294 20.4979C37.2835 20.3578 37.2093 20.1647 37.2093 20H40C40 18.6668 38.9371 17.9993 38.0906 17.885C37.2763 17.7749 36.2406 18.0759 35.675 19.0121L38.0636 20.4553Z" fill="white"/>
<path d="M20 37.2093C28.8868 37.2093 36.2005 30.4731 37.1133 21.8282C34.6449 24.9616 30.8141 26.9767 26.5116 26.9767C19.0621 26.9767 13.0233 20.9379 13.0233 13.4884C13.0233 9.18583 15.0384 5.35497 18.1719 2.88664C9.52694 3.79945 2.7907 11.1131 2.7907 20C2.7907 29.5044 10.4956 37.2093 20 37.2093Z" fill="#F48C1D"/>
</svg>
