<svg width="39" height="39" viewBox="0 0 39 39" fill="none" xmlns="http://www.w3.org/2000/svg">
<mask id="mask0_54_909" style="mask-type:luminance" maskUnits="userSpaceOnUse" x="-1" y="-1" width="41" height="41">
<path d="M-0.666748 -0.666504H39.3333V39.3335H-0.666748V-0.666504Z" fill="white"/>
</mask>
<g mask="url(#mask0_54_909)">
<path d="M29.3333 19.3333C29.3333 21.9855 28.2798 24.529 26.4044 26.4044C24.529 28.2798 21.9855 29.3333 19.3333 29.3333C16.6812 29.3333 14.1376 28.2798 12.2623 26.4044C10.3869 24.529 9.33333 21.9855 9.33333 19.3333C9.33333 16.6812 10.3869 14.1376 12.2623 12.2623C14.1376 10.3869 16.6812 9.33333 19.3333 9.33333C21.9855 9.33333 24.529 10.3869 26.4044 12.2623C28.2798 14.1376 29.3333 16.6812 29.3333 19.3333Z" fill="#F48C1D"/>
<path d="M4.33333 19.3333H1M37.6667 19.3333H34.3333M19.3333 34.3333V37.6667M19.3333 1V4.33333M8.72667 29.94L6.37 32.2967M32.2967 6.37L29.94 8.72667M8.72667 8.72667L6.37 6.37M32.2967 32.2967L29.94 29.94M29.3333 19.3333C29.3333 21.9855 28.2798 24.529 26.4044 26.4044C24.529 28.2798 21.9855 29.3333 19.3333 29.3333C16.6812 29.3333 14.1376 28.2798 12.2623 26.4044C10.3869 24.529 9.33333 21.9855 9.33333 19.3333C9.33333 16.6812 10.3869 14.1376 12.2623 12.2623C14.1376 10.3869 16.6812 9.33333 19.3333 9.33333C21.9855 9.33333 24.529 10.3869 26.4044 12.2623C28.2798 14.1376 29.3333 16.6812 29.3333 19.3333Z" stroke="white" stroke-width="2" stroke-miterlimit="10" stroke-linecap="round"/>
</g>
</svg>
