<svg width="20" height="20" viewBox="0 0 20 20" fill="none" xmlns="http://www.w3.org/2000/svg">
<path d="M17.5 2.5L10.8333 9.58333M7.87167 9.2375C5.805 10.0308 4.1525 9.895 2.5 9.24C2.91667 14.6092 5.42 16.6733 8.7575 17.5C8.7575 17.5 11.2717 15.7217 11.6342 11.5058C11.6733 11.0492 11.6925 10.8217 11.5983 10.5642C11.5033 10.3067 11.3167 10.1225 10.9442 9.75333C10.3308 9.14667 10.025 8.84333 9.66083 8.76667C9.29667 8.69167 8.82167 8.87333 7.87167 9.2375Z" stroke="white" stroke-linecap="round" stroke-linejoin="round"/>
<path d="M3.75 13.705C3.75 13.705 5.83333 14.1083 7.91667 12.5" stroke="white" stroke-linecap="round" stroke-linejoin="round"/>
<path d="M7.08333 6.04167C7.08333 6.31793 6.97359 6.58289 6.77824 6.77824C6.58289 6.97359 6.31793 7.08333 6.04167 7.08333C5.7654 7.08333 5.50045 6.97359 5.3051 6.77824C5.10975 6.58289 5 6.31793 5 6.04167C5 5.7654 5.10975 5.50045 5.3051 5.3051C5.50045 5.10975 5.7654 5 6.04167 5C6.31793 5 6.58289 5.10975 6.77824 5.3051C6.97359 5.50045 7.08333 5.7654 7.08333 6.04167Z" stroke="white"/>
<path d="M9.16699 3.33334V3.41668" stroke="white" stroke-linecap="round" stroke-linejoin="round"/>
</svg>
