<svg width="119" height="119" viewBox="0 0 119 119" fill="none" xmlns="http://www.w3.org/2000/svg">
<path d="M117.5 1.5H1.5V117.5M1.5 117.5H117.5V14.0667H1.5V117.5Z" stroke="white" stroke-width="3" stroke-linecap="square"/>
<circle cx="98.5" cy="7.5" r="3" fill="white"/>
<circle cx="111.5" cy="7.5" r="3" fill="white"/>
<g filter="url(#filter0_i_5_487)">
<path fill-rule="evenodd" clip-rule="evenodd" d="M60.5 22.5C84.2482 22.5 103.5 41.7518 103.5 65.5C103.5 89.2482 84.2482 108.5 60.5 108.5C36.7518 108.5 17.5 89.2482 17.5 65.5C17.5 41.7518 36.7518 22.5 60.5 22.5ZM41.5 65.4717C41.5002 75.9649 49.7828 84.4717 60 84.4717C69.8812 84.4717 77.9524 76.5151 78.4727 66.5H58.8506L58.7256 66.418L43.6787 56.5186C43.6228 56.6259 43.5686 56.7342 43.5146 56.8428L41.5 55.5V65.4717Z" fill="url(#paint0_linear_5_487)"/>
</g>
<line x1="18.5823" y1="39.0951" x2="59.0951" y2="66.4177" stroke="white" stroke-width="3" stroke-linecap="round"/>
<line x1="59.4252" y1="66.38" x2="98.38" y2="24.5748" stroke="white" stroke-width="3" stroke-linecap="round"/>
<line x1="99" y1="24" x2="99" y2="28" stroke="white" stroke-width="3" stroke-linecap="round"/>
<line x1="99" y1="24" x2="95" y2="24" stroke="white" stroke-width="3" stroke-linecap="round"/>
<defs>
<filter id="filter0_i_5_487" x="17.5" y="22.5" width="86" height="90" filterUnits="userSpaceOnUse" color-interpolation-filters="sRGB">
<feFlood flood-opacity="0" result="BackgroundImageFix"/>
<feBlend mode="normal" in="SourceGraphic" in2="BackgroundImageFix" result="shape"/>
<feColorMatrix in="SourceAlpha" type="matrix" values="0 0 0 0 0 0 0 0 0 0 0 0 0 0 0 0 0 0 127 0" result="hardAlpha"/>
<feOffset dy="4"/>
<feGaussianBlur stdDeviation="2"/>
<feComposite in2="hardAlpha" operator="arithmetic" k2="-1" k3="1"/>
<feColorMatrix type="matrix" values="0 0 0 0 0 0 0 0 0 0 0 0 0 0 0 0 0 0 0.25 0"/>
<feBlend mode="normal" in2="shape" result="effect1_innerShadow_5_487"/>
</filter>
<linearGradient id="paint0_linear_5_487" x1="31" y1="37.5" x2="100.167" y2="76.4406" gradientUnits="userSpaceOnUse">
<stop stop-color="#DD7A05" stop-opacity="0.8"/>
<stop offset="1" stop-color="#EC19A4" stop-opacity="0.8"/>
</linearGradient>
</defs>
</svg>
